<?xml version="1.0" encoding="UTF-8" standalone="no"?>
<svg
   width="93.092094"
   height="20"
   role="img"
   aria-label="Buy Me A Coffee: Donate"
   version="1.1"
   id="svg30"
   sodipodi:docname="bmc-yellow.svg"
   inkscape:version="1.1.2 (0a00cf5339, 2022-02-04)"
   xmlns:inkscape="http://www.inkscape.org/namespaces/inkscape"
   xmlns:sodipodi="http://sodipodi.sourceforge.net/DTD/sodipodi-0.dtd"
   xmlns="http://www.w3.org/2000/svg"
   xmlns:svg="http://www.w3.org/2000/svg"
   xmlns:rdf="http://www.w3.org/1999/02/22-rdf-syntax-ns#"
   xmlns:cc="http://creativecommons.org/ns#"
   xmlns:dc="http://purl.org/dc/elements/1.1/">
  <sodipodi:namedview
     id="namedview38"
     pagecolor="#ffffff"
     bordercolor="#000000"
     borderopacity="0.25"
     inkscape:pageshadow="2"
     inkscape:pageopacity="0.0"
     inkscape:pagecheckerboard="0"
     showgrid="false"
     showguides="true"
     inkscape:guide-bbox="true"
     fit-margin-top="0"
     fit-margin-left="0"
     fit-margin-right="0"
     fit-margin-bottom="0"
     inkscape:zoom="10.824826"
     inkscape:cx="60.832387"
     inkscape:cy="19.122709"
     inkscape:window-width="1920"
     inkscape:window-height="1055"
     inkscape:window-x="0"
     inkscape:window-y="32"
     inkscape:window-maximized="1"
     inkscape:current-layer="g925" />
  <defs
     id="defs34">
    <linearGradient
       id="workflow-fill"
       x1="19.179085"
       y1="0"
       x2="19.179085"
       y2="38.35817"
       gradientTransform="scale(1.9179085,0.52140129)"
       gradientUnits="userSpaceOnUse">
      <stop
         stop-color="#444D56"
         offset="0%"
         id="stop1025" />
      <stop
         stop-color="#24292E"
         offset="100%"
         id="stop1027" />
    </linearGradient>
    <linearGradient
       id="state-fill"
       x1="0.5"
       y1="0"
       x2="0.5"
       y2="1">
      <stop
         stop-color="#D73A49"
         offset="0%"
         id="stop1030" />
      <stop
         stop-color="#CB2431"
         offset="100%"
         id="stop1032" />
    </linearGradient>
  </defs>
  <title
     id="title2">Buy Me A Coffee: Donate</title>
  <linearGradient
     id="s"
     x2="0"
     y2="54.772255"
     gradientTransform="matrix(2.7386128,0,0,0.36514837,-5.5656844,18.995008)"
     x1="0"
     y1="0"
     gradientUnits="userSpaceOnUse">
    <stop
       offset="0"
       stop-color="#bbb"
       stop-opacity=".1"
       id="stop4" />
    <stop
       offset="1"
       stop-opacity=".1"
       id="stop6" />
  </linearGradient>
  <clipPath
     id="r">
    <rect
       width="150"
       height="20"
       rx="3"
       fill="#ffffff"
       id="rect9"
       x="0"
       y="0" />
  </clipPath>
  <metadata
     id="metadata851">
    <rdf:RDF>
      <cc:Work
         rdf:about="">
        <dc:title>Buy Me A Coffee: Donate</dc:title>
      </cc:Work>
    </rdf:RDF>
  </metadata>
  <g
     style="fill:none"
     id="g925"
     transform="matrix(0.13071895,0,0,0.13071895,-0.95858891,0)">
    <path
       d="M 7.3332054,24.48 C 7.3332054,10.9601 18.293305,0 31.813205,0 H 695.00777 c 13.52,0 24.48,10.9601 24.48,24.48 v 104.04 c 0,13.52 -10.96,24.48 -24.48,24.48 H 31.813205 C 18.293305,153 7.3332054,142.04 7.3332054,128.52 Z"
       fill="#ffdd00"
       id="path859"
       style="fill:#ffdd00"
       sodipodi:nodetypes="sssssssss" />
    <path
       d="m 109.522,50.3178 -0.067,-0.0395 -0.156,-0.0475 c 0.063,0.0528 0.141,0.0834 0.223,0.087 z"
       fill="#0d0c22"
       id="path861" />
    <path
       d="m 110.507,57.3134 -0.075,0.021 z"
       fill="#0d0c22"
       id="path863" />
    <path
       d="m 109.549,50.3062 c -0.009,-0.0011 -0.017,-0.0031 -0.025,-0.0059 -0.001,0.0055 -0.001,0.011 0,0.0165 0.009,-0.0012 0.017,-0.0049 0.025,-0.0106 z"
       fill="#0d0c22"
       id="path865" />
    <path
       d="m 109.523,50.3205 h 0.013 v -0.0078 z"
       fill="#0d0c22"
       id="path867" />
    <path
       d="m 110.447,57.3006 0.113,-0.0645 0.042,-0.0238 0.038,-0.0408 c -0.071,0.031 -0.137,0.0747 -0.193,0.1291 z"
       fill="#0d0c22"
       id="path869" />
    <path
       d="m 109.715,50.4713 -0.111,-0.1054 -0.075,-0.0408 c 0.041,0.0712 0.107,0.1237 0.186,0.1462 z"
       fill="#0d0c22"
       id="path871" />
    <path
       d="m 81.8801,118.353 c -0.0885,0.038 -0.1659,0.098 -0.2253,0.174 l 0.0698,-0.045 c 0.0474,-0.043 0.1146,-0.095 0.1555,-0.129 z"
       fill="#0d0c22"
       id="path873" />
    <path
       d="m 98.0456,115.173 c 0,-0.1 -0.0488,-0.082 -0.0369,0.274 0,-0.029 0.0119,-0.058 0.0171,-0.086 0.0066,-0.063 0.0119,-0.125 0.0198,-0.188 z"
       fill="#0d0c22"
       id="path875" />
    <path
       d="m 96.3761,118.353 c -0.0884,0.038 -0.1658,0.098 -0.2252,0.174 l 0.0698,-0.045 c 0.0474,-0.043 0.1146,-0.095 0.1554,-0.129 z"
       fill="#0d0c22"
       id="path877" />
    <path
       d="m 70.4886,119.11 c -0.0671,-0.058 -0.1493,-0.097 -0.2371,-0.111 0.0711,0.035 0.1422,0.069 0.1897,0.095 z"
       fill="#0d0c22"
       id="path879" />
    <path
       d="m 67.9304,116.657 c -0.0104,-0.104 -0.0423,-0.204 -0.0935,-0.295 0.0363,0.094 0.0666,0.191 0.0909,0.29 z"
       fill="#0d0c22"
       id="path881" />
    <path
       d="m 85.1368,72.7737 c -3.5173,1.5057 -7.5088,3.2129 -12.6819,3.2129 -2.1641,-0.0043 -4.3176,-0.3012 -6.4022,-0.8826 l 3.5779,36.734 c 0.1266,1.535 0.8261,2.967 1.9594,4.01 1.1333,1.044 2.6176,1.623 4.1582,1.622 0,0 5.073,0.264 6.7658,0.264 1.8218,0 7.2848,-0.264 7.2848,-0.264 1.5403,0 3.0243,-0.579 4.1574,-1.622 1.133,-1.044 1.8323,-2.475 1.9589,-4.01 l 3.8321,-40.5924 c -1.7125,-0.5849 -3.4408,-0.9735 -5.3892,-0.9735 -3.3697,-0.0013 -6.0847,1.1592 -9.2212,2.5016 z"
       fill="#ffffff"
       id="path883"
       style="fill:#ffffff" />
    <path
       d="m 54.9844,57.1021 0.0606,0.0566 0.0395,0.0237 c -0.0304,-0.0302 -0.064,-0.0572 -0.1001,-0.0803 z"
       fill="#0d0c22"
       id="path885" />
    <path
       d="m 116.299,53.7119 -0.538,-2.7176 c -0.484,-2.4384 -1.581,-4.7424 -4.084,-5.6237 -0.802,-0.2819 -1.713,-0.4031 -2.328,-0.9866 -0.615,-0.5836 -0.797,-1.4899 -0.939,-2.3304 -0.263,-1.5426 -0.511,-3.0865 -0.781,-4.6264 -0.233,-1.3239 -0.418,-2.8112 -1.025,-4.0257 -0.79,-1.6309 -2.43,-2.5846 -4.061,-3.2156 -0.836,-0.312 -1.689,-0.5759 -2.5546,-0.7904 -4.0745,-1.075 -8.3584,-1.4702 -12.5502,-1.6954 -5.0312,-0.2776 -10.0759,-0.194 -15.0952,0.2503 -3.7359,0.3398 -7.6707,0.7509 -11.2209,2.0431 -1.2976,0.473 -2.6346,1.0407 -3.6213,2.0432 -1.2106,1.2317 -1.6058,3.1366 -0.7219,4.6725 0.6284,1.0908 1.6928,1.8614 2.8217,2.3712 1.4705,0.6569 3.0062,1.1567 4.5816,1.4912 4.3867,0.9696 8.9302,1.3503 13.4117,1.5123 4.9671,0.2005 9.9423,0.038 14.8857,-0.4861 1.2225,-0.1343 2.4428,-0.2955 3.6609,-0.4834 1.4345,-0.22 2.3553,-2.0959 1.9325,-3.4027 -0.5059,-1.5623 -1.8653,-2.1683 -3.4027,-1.9325 -0.2265,0.0356 -0.4518,0.0685 -0.6784,0.1015 l -0.1633,0.0237 c -0.5208,0.0658 -1.0416,0.1273 -1.5624,0.1844 -1.0758,0.1159 -2.1542,0.2108 -3.2353,0.2845 -2.4212,0.1686 -4.8491,0.2464 -7.2756,0.2503 -2.3843,0 -4.77,-0.0672 -7.1491,-0.2239 -1.0855,-0.0712 -2.1683,-0.1616 -3.2485,-0.2714 -0.4914,-0.0514 -0.9814,-0.1054 -1.4715,-0.166 L 69.4199,35.903 69.3185,35.8886 68.835,35.8187 c -0.988,-0.1488 -1.976,-0.3201 -2.9534,-0.5269 -0.0986,-0.0219 -0.1869,-0.0767 -0.2501,-0.1555 -0.0632,-0.0788 -0.0977,-0.1769 -0.0977,-0.2779 0,-0.101 0.0345,-0.199 0.0977,-0.2778 0.0632,-0.0788 0.1515,-0.1337 0.2501,-0.1556 H 65.9 c 0.8471,-0.1805 1.7007,-0.3346 2.5569,-0.469 0.2855,-0.0447 0.5718,-0.0887 0.8589,-0.1317 h 0.0079 c 0.5362,-0.0356 1.075,-0.1317 1.6085,-0.195 4.6418,-0.4828 9.3112,-0.6474 13.9755,-0.4926 2.2644,0.0658 4.5276,0.1989 6.7815,0.4281 0.4848,0.0501 0.967,0.1028 1.4491,0.162 0.1844,0.0224 0.3702,0.0488 0.5559,0.0712 l 0.3741,0.054 c 1.0908,0.1624 2.1758,0.3596 3.2551,0.5915 1.5993,0.3477 3.6526,0.461 4.3646,2.2131 0.226,0.5559 0.329,1.1737 0.454,1.7573 l 0.16,0.7442 c 0.004,0.0134 0.007,0.0271 0.009,0.0409 0.377,1.7564 0.754,3.5128 1.131,5.2693 0.028,0.1297 0.029,0.2638 0.002,0.3938 -0.026,0.13 -0.079,0.2532 -0.155,0.3618 -0.076,0.1087 -0.174,0.2005 -0.287,0.2697 -0.113,0.0692 -0.24,0.1143 -0.371,0.1326 h -0.011 l -0.23,0.0316 -0.228,0.0303 c -0.722,0.094 -1.445,0.1818 -2.1684,0.2635 -1.4253,0.1624 -2.8528,0.303 -4.2826,0.4215 -2.841,0.2363 -5.6877,0.3913 -8.5402,0.465 -1.4534,0.0387 -2.9064,0.0567 -4.359,0.054 -5.7817,-0.0045 -11.5584,-0.3405 -17.3017,-1.0064 -0.6218,-0.0738 -1.2435,-0.1528 -1.8653,-0.2332 0.4821,0.062 -0.3504,-0.0474 -0.519,-0.0711 -0.3952,-0.0553 -0.7904,-0.1128 -1.1856,-0.1726 -1.3266,-0.1989 -2.6452,-0.4439 -3.9691,-0.6586 -1.6006,-0.2635 -3.1313,-0.1317 -4.579,0.6586 -1.1884,0.6503 -2.1502,1.6476 -2.7572,2.8586 -0.6244,1.291 -0.8101,2.6966 -1.0894,4.0837 -0.2793,1.3872 -0.714,2.8797 -0.5493,4.3037 0.3543,3.0733 2.5029,5.571 5.5933,6.1295 2.9073,0.5269 5.8305,0.9538 8.7615,1.3173 11.5138,1.4102 23.1458,1.5789 34.6956,0.5033 0.9406,-0.0879 1.8799,-0.1836 2.8174,-0.2872 0.293,-0.0322 0.59,0.0015 0.868,0.0988 0.278,0.0972 0.531,0.2554 0.74,0.463 0.209,0.2077 0.37,0.4595 0.469,0.737 0.099,0.2775 0.135,0.5737 0.105,0.8669 l -0.293,2.8427 c -0.589,5.7444 -1.178,11.4884 -1.767,17.2319 -0.615,6.0316 -1.2339,12.0628 -1.8565,18.093 -0.1757,1.699 -0.3513,3.397 -0.527,5.095 -0.1686,1.671 -0.1923,3.396 -0.5098,5.048 -0.5005,2.597 -2.2592,4.193 -4.8253,4.776 -2.351,0.535 -4.7526,0.816 -7.1636,0.838 -2.6728,0.014 -5.3444,-0.104 -8.0172,-0.09 -2.8533,0.016 -6.3482,-0.247 -8.5508,-2.371 -1.9351,-1.865 -2.2025,-4.786 -2.466,-7.311 -0.3513,-3.343 -0.6995,-6.686 -1.0446,-10.029 L 64.0887,82.0212 62.8359,69.9953 c -0.021,-0.1989 -0.0421,-0.3952 -0.0619,-0.5954 -0.1501,-1.4345 -1.1658,-2.8388 -2.7663,-2.7664 -1.3701,0.0606 -2.9271,1.2251 -2.7664,2.7664 l 0.9287,8.9156 1.9206,18.4426 c 0.5472,5.2389 1.093,10.4779 1.6375,15.7179 0.1054,1.004 0.2042,2.011 0.3148,3.014 0.602,5.486 4.7911,8.442 9.9787,9.274 3.0299,0.488 6.1335,0.588 9.2081,0.638 3.9414,0.063 7.9224,0.215 11.7993,-0.499 5.7448,-1.054 10.055,-4.89 10.67,-10.841 0.176,-1.717 0.352,-3.436 0.527,-5.154 0.584,-5.684 1.167,-11.3683 1.75,-17.053 l 1.904,-18.5743 0.874,-8.5125 c 0.043,-0.4221 0.222,-0.819 0.508,-1.1319 0.287,-0.3129 0.667,-0.5253 1.083,-0.6056 1.643,-0.3202 3.213,-0.8668 4.382,-2.117 1.86,-1.9905 2.23,-4.5856 1.572,-7.2018 z m -61.7938,1.8364 c 0.025,-0.0119 -0.0211,0.2028 -0.0408,0.303 -0.004,-0.1515 0.0039,-0.2859 0.0408,-0.303 z m 0.1594,1.233 c 0.0132,-0.0092 0.0527,0.0435 0.0935,0.1067 -0.0619,-0.058 -0.1014,-0.1014 -0.0948,-0.1067 z m 0.1568,0.2068 c 0.0566,0.0962 0.0869,0.1568 0,0 z m 0.3148,0.2556 h 0.0079 c 0,0.0092 0.0145,0.0184 0.0198,0.0276 -0.0088,-0.0101 -0.0185,-0.0194 -0.029,-0.0276 z m 55.1328,-0.3821 c -0.59,0.5612 -1.48,0.8221 -2.358,0.9525 -9.8538,1.4622 -19.851,2.2025 -29.8126,1.8758 -7.1293,-0.2437 -14.1836,-1.0354 -21.2418,-2.0326 -0.6916,-0.0975 -1.4411,-0.2239 -1.9167,-0.7337 -0.8958,-0.9617 -0.4558,-2.8982 -0.2226,-4.06 0.2134,-1.0644 0.6218,-2.4832 1.8877,-2.6347 1.976,-0.2318 4.2708,0.602 6.2257,0.8984 2.3536,0.3592 4.716,0.6468 7.0872,0.8629 10.1196,0.9221 20.4092,0.7785 30.4841,-0.5704 1.836,-0.2468 3.666,-0.5335 5.489,-0.8602 1.625,-0.2912 3.425,-0.8378 4.407,0.8444 0.673,1.146 0.762,2.6794 0.658,3.9743 -0.032,0.5642 -0.278,1.0949 -0.689,1.4833 z"
       fill="#0d0c22"
       id="path887"
       style="fill:#000000" />
    <path
       fill-rule="evenodd"
       clip-rule="evenodd"
       d="m 181.88202,90.016662 c -0.87473,1.670515 -2.07806,3.125465 -3.60999,4.359981 -1.53193,1.235429 -3.3179,2.241298 -5.36098,3.01578 -2.04155,0.776308 -4.0968,1.297193 -6.16269,1.562656 -2.06742,0.266528 -4.07399,0.243405 -6.01666,-0.07287 -1.94571,-0.314296 -3.60086,-0.955971 -4.96088,-1.925937 l 1.53345,-15.915147 c 1.4087,-0.483918 3.18251,-0.980919 5.32295,-1.489787 2.13891,-0.508106 4.33868,-0.8723 6.60082,-1.089843 2.26214,-0.218455 4.39953,-0.192745 6.41827,0.07287 2.01721,0.266375 3.60999,0.90805 4.77681,1.925937 0.63285,0.580823 1.16834,1.210632 1.60494,1.889122 0.43813,0.678642 0.70436,1.381167 0.80324,2.107729 0.24188,2.034709 -0.073,3.887929 -0.94928,5.559509 z M 159.63638,56.114693 c 1.02078,-0.629656 2.24997,-1.187509 3.68302,-1.672492 1.43456,-0.483005 2.90564,-0.823315 4.41322,-1.016822 1.50607,-0.192745 2.97714,-0.218607 4.41323,-0.07287 1.43304,0.145587 2.69874,0.544922 3.79254,1.198615 1.0938,0.654605 1.90768,1.599623 2.44317,2.834139 0.53397,1.236342 0.68001,2.798998 0.43661,4.688121 -0.1932,1.501957 -0.79106,2.774201 -1.78598,3.815211 -0.99644,1.042683 -2.21346,1.913919 -3.6465,2.616597 -1.43457,0.703438 -2.95432,1.260226 -4.55775,1.670514 -1.60647,0.413027 -3.15056,0.71637 -4.63229,0.909116 -1.48324,0.194571 -2.77177,0.316273 -3.86556,0.363281 -1.0938,0.04883 -1.81184,0.07272 -2.15261,0.07272 z M 189.7592,79.73298 c -0.77738,-1.694703 -1.82249,-3.184642 -3.13536,-4.469817 -1.31286,-1.28335 -2.87065,-2.215436 -4.6688,-2.797173 0.77738,-0.629808 1.5441,-1.622746 2.29865,-2.979878 0.75304,-1.355306 1.39654,-2.834139 1.93203,-4.432849 0.53396,-1.599624 0.90059,-3.209439 1.09379,-4.832946 0.19321,-1.622747 0.12018,-3.01578 -0.21754,-4.179405 -0.82909,-2.905944 -2.12827,-5.183296 -3.9036,-6.83084 -1.77533,-1.64663 -3.84122,-2.785306 -6.1992,-3.415876 -2.3595,-0.627831 -4.95937,-0.762464 -7.80415,-0.399183 -2.84479,0.363129 -5.75043,1.077673 -8.7154,2.14348 0,-0.241579 0.0243,-0.495937 0.073,-0.762464 0.0472,-0.265463 0.0715,-0.544922 0.0715,-0.836247 0,-0.72641 -0.36359,-1.355306 -1.0938,-1.889122 -0.72869,-0.532903 -1.56691,-0.847199 -2.51467,-0.945017 -0.94928,-0.09584 -1.87269,0.108771 -2.77329,0.61779 -0.89907,0.508868 -1.51975,1.442932 -1.859,2.797173 -0.38945,4.361046 -0.77889,8.891562 -1.16682,13.590027 -0.38945,4.700138 -0.80323,9.448349 -1.23984,14.245392 -0.43813,4.795979 -0.87626,9.556208 -1.31286,14.27947 -0.43813,4.724174 -0.87626,9.265795 -1.31286,13.625775 0.14604,1.3083 0.50962,2.32619 1.09379,3.05275 0.58265,0.72732 1.26419,1.16347 2.04156,1.3083 0.77737,0.14558 1.59278,0.0109 2.44317,-0.40025 0.85039,-0.41029 1.59278,-1.12666 2.22563,-2.14348 1.94419,1.06581 4.13331,1.75631 6.56431,2.07167 2.431,0.3143 4.89699,0.3143 7.40406,0 2.5025,-0.31536 4.97001,-0.9082 7.40101,-1.78126 2.431,-0.87139 4.64446,-1.96199 6.63733,-3.26938 1.9944,-1.308295 3.67085,-2.799146 5.03391,-4.469661 1.36002,-1.672492 2.26062,-3.476879 2.69722,-5.413922 0.43813,-1.986788 0.55983,-3.972663 0.36511,-5.959603 -0.19472,-1.985876 -0.68153,-3.826165 -1.4589,-5.523454 z"
       fill="#0d0c23"
       id="path889"
       style="fill:#000000;stroke-width:1.52128" />
    <path
       fill-rule="evenodd"
       clip-rule="evenodd"
       d="m 260.91694,118.10294 c -0.26622,1.59886 -0.64502,3.28292 -1.13031,5.05216 -0.48681,1.76621 -1.05729,3.37876 -1.71296,4.8331 -0.65719,1.45282 -1.38588,2.62572 -2.18759,3.52328 -0.80324,0.89603 -1.66732,1.27179 -2.59074,1.12726 -0.72869,-0.0989 -1.19116,-0.5583 -1.38436,-1.38131 -0.19624,-0.82454 -0.19624,-1.84227 0,-3.05169 0.1932,-1.21246 0.56896,-2.5816 1.12879,-4.10745 0.55983,-1.52584 1.24136,-3.04103 2.04307,-4.54101 0.80324,-1.50302 1.71448,-2.94367 2.73526,-4.32499 1.02078,-1.37949 2.09023,-2.5311 3.20837,-3.45117 0.24341,0.29041 0.35294,1.01697 0.3286,2.18045 -0.0259,1.16271 -0.17038,2.54403 -0.43813,4.14137 z m 24.72684,-31.539577 c -0.65719,-0.726562 -1.4589,-1.137763 -2.40818,-1.235429 -0.94775,-0.09691 -1.9092,0.435998 -2.87978,1.59871 -0.63285,1.16256 -1.43608,2.2772 -2.40818,3.343007 -0.9721,1.066719 -1.9807,2.03486 -3.02582,2.907009 -1.04664,0.871235 -2.04308,1.623507 -2.99083,2.252403 -0.94776,0.630569 -1.69014,1.090603 -2.22411,1.381015 -0.19472,-1.549725 -0.30577,-3.221304 -0.32859,-5.014586 -0.0259,-1.792369 0.0122,-3.608622 0.10953,-5.449824 0.14452,-2.616445 0.44877,-5.256165 0.91124,-7.921595 0.46247,-2.664365 1.13031,-5.280962 2.00657,-7.849639 0,-1.355306 -0.31795,-2.457928 -0.94928,-3.306192 -0.63285,-0.847199 -1.39805,-1.381015 -2.29713,-1.59871 -0.90059,-0.217543 -1.82249,-0.09675 -2.77177,0.363281 -0.94775,0.460947 -1.76163,1.297193 -2.44317,2.506913 -0.58265,1.599623 -1.25201,3.39184 -2.00504,5.377867 -0.75455,1.986788 -1.60495,4.009631 -2.5527,6.068375 -0.94928,2.06057 -2.00657,4.058464 -3.17339,5.995658 -1.16682,1.938868 -2.44317,3.659281 -3.82905,5.160173 -1.38589,1.501957 -2.89347,2.677448 -4.52124,3.5248 -1.63081,0.848112 -3.39093,1.223411 -5.28796,1.126658 -0.87625,-0.242492 -1.50911,-0.896185 -1.89703,-1.962905 -0.38945,-1.064894 -0.62068,-2.398141 -0.69218,-3.996851 -0.073,-1.598711 0,-3.355025 0.21754,-5.269096 0.21906,-1.913007 0.51115,-3.81506 0.87626,-5.704182 0.36358,-1.890035 0.7652,-3.682404 1.2018,-5.377867 0.43813,-1.695464 0.8504,-3.125464 1.23985,-4.288025 0.58417,-1.404291 0.58417,-2.580694 0,-3.524799 -0.58265,-0.945018 -1.38437,-1.573761 -2.40514,-1.890035 -1.02078,-0.314296 -2.09176,-0.301517 -3.2099,0.03697 -1.11814,0.339245 -1.92137,1.089691 -2.40666,2.252251 -0.82757,1.987853 -1.58213,4.215307 -2.26214,6.686166 -0.68001,2.471011 -1.22767,5.027517 -1.63994,7.667238 -0.41378,2.641393 -0.64654,5.25799 -0.6937,7.849638 -0.003,0.16871 0.005,0.329053 0.005,0.496849 -1.06033,2.816645 -2.07046,4.945521 -3.03039,6.370045 -1.23984,1.841962 -2.63941,2.641394 -4.19416,2.397989 -0.68305,-0.290412 -1.13031,-0.968141 -1.34937,-2.03486 -0.22059,-1.064894 -0.29209,-2.373041 -0.22059,-3.924744 0.0745,-1.548964 0.2571,-3.305279 0.54766,-5.268183 0.29361,-1.961991 0.65567,-3.9967 1.0938,-6.104429 0.43813,-2.108491 0.9006,-4.226261 1.38588,-6.358787 0.48681,-2.131614 0.92342,-4.142438 1.31439,-6.032473 -0.0487,-1.695464 -0.54766,-2.990831 -1.49694,-3.887929 -0.94623,-0.895271 -2.27279,-1.246534 -3.97358,-1.053788 -1.16682,0.484831 -2.0309,1.115552 -2.58921,1.890035 -0.55983,0.77433 -1.01013,1.768332 -1.34937,2.978813 -0.19625,0.630721 -0.48681,1.890035 -0.87626,3.780069 -0.38945,1.88821 -0.8869,4.057703 -1.49541,6.503613 -0.60699,2.447887 -1.32504,5.00272 -2.15109,7.667085 -0.82605,2.664518 -1.75099,5.076503 -2.77025,7.231088 -1.02229,2.15565 -2.14043,3.887928 -3.35593,5.196227 -1.2155,1.307385 -2.52837,1.841202 -3.93859,1.59871 -0.7789,-0.145586 -1.27635,-0.945017 -1.49542,-2.397989 -0.21906,-1.454037 -0.25405,-3.245341 -0.10953,-5.377868 0.14604,-2.131613 0.43813,-4.469817 0.87474,-7.012632 0.43812,-2.543727 0.8869,-4.953735 1.34937,-7.231848 0.46247,-2.276439 0.88842,-4.288176 1.27787,-6.03156 0.38793,-1.744449 0.65567,-2.907009 0.80171,-3.487832 0,-1.405052 -0.31794,-2.530797 -0.94775,-3.379974 -0.63285,-0.846439 -1.39805,-1.380255 -2.29865,-1.598711 -0.9006,-0.217542 -1.82401,-0.09675 -2.77025,0.363281 -0.94927,0.460947 -1.76316,1.297194 -2.44469,2.506761 -0.2434,1.308299 -0.55983,2.823187 -0.94776,4.542686 -0.38944,1.719348 -0.7652,3.487833 -1.1303,5.304998 -0.36511,1.817166 -0.70588,3.597517 -1.02078,5.341814 -0.31643,1.744448 -0.54766,3.270289 -0.6937,4.578588 -0.0974,1.016974 -0.2069,2.265334 -0.32708,3.742342 -0.12322,1.478834 -0.18407,3.040577 -0.18407,4.687208 0,1.648608 0.1217,3.28322 0.36662,4.905815 0.24189,1.623651 0.68002,3.113591 1.31135,4.468901 0.63133,1.35713 1.51975,2.47086 2.66375,3.34301 1.14096,0.87214 2.58769,1.35622 4.33869,1.45403 1.79814,0.0958 3.36658,-0.036 4.70531,-0.40024 1.33568,-0.36329 2.55118,-0.933 3.6465,-1.7084 1.0938,-0.77357 2.09023,-1.69455 2.99083,-2.76127 0.89755,-1.06489 1.78598,-2.22745 2.66071,-3.48783 0.82758,1.84211 1.89704,3.27029 3.2099,4.28802 1.31286,1.01698 2.69874,1.62366 4.15765,1.81641 1.45738,0.19259 2.94215,-0.0111 4.44973,-0.61779 1.50607,-0.60486 2.86761,-1.63462 4.08311,-3.08865 0.80172,-0.89147 1.55627,-1.90479 2.26518,-3.024907 0.30122,0.524536 0.62069,1.030667 0.98123,1.498147 1.19116,1.55171 2.80828,2.6166 4.85135,3.19834 2.1876,0.58173 4.32499,0.67955 6.41675,0.29132 2.09023,-0.38716 4.08463,-1.0906 5.98014,-2.10758 1.89703,-1.01788 3.65867,-2.24038 5.28948,-3.670379 1.62777,-1.429088 3.05016,-2.918114 4.26566,-4.469665 -0.0487,1.11464 -0.073,2.169342 -0.073,3.161367 0,0.99385 -0.0243,2.070762 -0.0715,3.234237 -2.43252,1.69652 -4.72965,3.73123 -6.89291,6.10442 -2.16477,2.3732 -4.06181,4.90491 -5.68957,7.59392 -1.62929,2.68809 -2.90564,5.41422 -3.82754,8.17534 -0.92493,2.76264 -1.37523,5.34273 -1.35089,7.74178 0.0243,2.39753 0.59482,4.49233 1.71448,6.2844 1.11662,1.79358 2.94063,3.07602 5.46899,3.85187 2.62725,0.82453 4.93502,0.84735 6.93094,0.073 1.99287,-0.77585 3.73017,-2.05981 5.21342,-3.85187 1.48324,-1.79207 2.69874,-3.95989 3.64802,-6.50346 0.94776,-2.54358 1.70079,-5.19668 2.26062,-7.9578 0.55831,-2.76112 0.91124,-5.4766 1.05729,-8.13929 0.14604,-2.66543 0.14604,-5.04045 0,-7.12308 4.18199,-1.74354 7.60943,-3.94802 10.28383,-6.61345 2.67441,-2.662535 4.88634,-5.473703 6.63733,-8.429545 0.53397,-0.726562 0.71653,-1.59871 0.54766,-2.615684 -0.1719,-1.017735 -0.58417,-1.890035 -1.23984,-2.616445 z"
       fill="#0d0c23"
       id="path891"
       style="fill:#000000;stroke-width:1.52128" />
    <path
       fill-rule="evenodd"
       clip-rule="evenodd"
       d="m 377.65216,81.914035 c 0.14604,-1.113727 0.3651,-2.289218 0.65567,-3.524647 0.29208,-1.235429 0.65719,-2.434957 1.09532,-3.597517 0.4366,-1.16256 0.94775,-2.167516 1.53192,-3.01578 0.58265,-0.847351 1.20333,-1.452972 1.859,-1.817166 0.65719,-0.362368 1.32351,-0.326466 2.00657,0.108772 0.72869,0.437063 1.17747,1.357131 1.34937,2.76127 0.16886,1.406877 0,2.907922 -0.51115,4.506632 -0.51115,1.599623 -1.42239,3.100515 -2.73526,4.505719 -1.31286,1.405965 -3.08819,2.32512 -5.32447,2.761271 -0.0974,-0.676665 -0.073,-1.573762 0.073,-2.688554 z M 402.92361,84.893 c -0.80171,-0.240666 -1.56691,-0.265462 -2.29713,-0.07196 -0.72869,0.193659 -1.19116,0.702526 -1.38436,1.526906 -0.39097,1.549725 -1.01165,3.136417 -1.86204,4.759164 -0.85039,1.623659 -1.89551,3.161366 -3.13383,4.615403 -1.23984,1.452972 -2.63942,2.737387 -4.19416,3.851114 -1.55779,1.114643 -3.18556,1.913923 -4.88787,2.397993 -1.70231,0.53382 -3.11253,0.59375 -4.22915,0.18164 -1.11966,-0.41029 -2.00656,-1.11373 -2.66223,-2.10666 -0.6572,-0.992946 -1.13183,-2.192473 -1.4224,-3.597525 -0.29208,-1.405204 -0.46247,-2.858176 -0.51115,-4.361045 2.77177,0.194571 5.23928,-0.301365 7.40406,-1.489787 2.16173,-1.185684 3.99792,-2.761423 5.5055,-4.723414 1.50607,-1.961839 2.65007,-4.166322 3.42744,-6.613297 0.77737,-2.44591 1.2155,-4.880866 1.31286,-7.303804 0.0487,-2.277352 -0.29056,-4.202377 -1.02077,-5.777051 -0.7287,-1.573913 -1.71448,-2.79915 -2.95433,-3.670386 -1.23832,-0.872148 -2.66223,-1.381167 -4.26566,-1.525841 -1.60342,-0.145738 -3.23423,0.07272 -4.88786,0.653693 -1.9944,0.67849 -3.68301,1.780199 -5.0689,3.307105 -1.38588,1.525841 -2.54053,3.295086 -3.46395,5.304998 -0.92341,2.010824 -1.65362,4.17834 -2.18759,6.503613 -0.53549,2.326033 -0.92494,4.615403 -1.16682,6.868719 -0.21907,2.021777 -0.3362,3.955169 -0.37728,5.821319 -0.10497,0.236863 -0.20537,0.464599 -0.31642,0.718195 -0.75456,1.721326 -1.63081,3.404771 -2.62573,5.051402 -0.99644,1.647695 -2.10393,3.028711 -3.3179,4.142438 -1.21551,1.114798 -2.47969,1.501958 -3.79255,1.162718 -0.77889,-0.19275 -1.20333,-1.090762 -1.27635,-2.688559 -0.073,-1.599623 0.0106,-3.585499 0.25405,-5.959604 0.24341,-2.373193 0.52332,-4.94263 0.83975,-7.704053 0.3149,-2.76127 0.47311,-5.400838 0.47311,-7.920682 0,-2.180447 -0.41378,-4.275093 -1.23984,-6.286831 -0.82757,-2.008998 -1.95788,-3.681491 -3.39092,-5.013673 -1.43457,-1.333248 -3.10037,-2.217414 -4.99588,-2.652499 -1.89703,-0.437063 -3.93858,-0.145739 -6.12618,0.871235 -2.18912,1.017887 -3.92794,2.446823 -5.21494,4.288025 -1.29004,1.842114 -2.46903,3.779157 -3.53849,5.814017 -0.38945,-1.55079 -0.95993,-2.990831 -1.71448,-4.324078 -0.75303,-1.332183 -1.67645,-2.494895 -2.77025,-3.488746 -1.09532,-0.992025 -2.32451,-1.76742 -3.68301,-2.325272 -1.36154,-0.555875 -2.79763,-0.835181 -4.30521,-0.835181 -1.45739,0 -2.80676,0.279306 -4.0466,0.835181 -1.23984,0.557852 -2.37015,1.271484 -3.39245,2.143632 -1.02078,0.873061 -1.94419,1.85322 -2.77177,2.943824 -0.82605,1.089843 -1.55626,2.16858 -2.18759,3.233474 -0.0989,-1.259465 -0.2069,-2.361174 -0.32708,-3.307256 -0.12322,-0.943953 -0.34229,-1.743384 -0.65719,-2.397077 -0.31643,-0.654606 -0.7652,-1.150542 -1.34937,-1.489939 -0.58417,-0.338332 -1.41023,-0.508867 -2.47969,-0.508867 -0.53548,0 -1.07097,0.108771 -1.60494,0.326314 -0.53549,0.218607 -1.01013,0.52195 -1.4224,0.909115 -0.41378,0.389143 -0.72869,0.86013 -0.94775,1.41707 -0.21907,0.556939 -0.2784,1.199527 -0.18256,1.925937 0.0487,0.533816 0.18256,1.17473 0.40162,1.926089 0.21754,0.751359 0.42444,1.733343 0.61916,2.942911 0.19472,1.211545 0.35294,2.677448 0.47464,4.396948 0.1217,1.720412 0.15669,3.82799 0.10953,6.322885 -0.0502,2.495807 -0.23123,5.413769 -0.54766,8.756776 -0.31642,3.343159 -0.8154,7.219069 -1.49541,11.627124 -0.0974,1.01774 0.29208,1.84212 1.16834,2.47177 0.87473,0.62875 1.87117,0.99203 2.98931,1.08969 1.11814,0.0969 2.17694,-0.0977 3.17338,-0.58082 0.99644,-0.48589 1.56844,-1.33309 1.71296,-2.54373 0.14604,-2.2772 0.42596,-4.69922 0.83974,-7.267903 0.41227,-2.566699 0.92342,-5.110427 1.53193,-7.630271 0.60699,-2.518778 1.29917,-4.916768 2.07807,-7.195033 0.77737,-2.2772 1.64145,-4.287111 2.58921,-6.03156 0.94928,-1.744297 1.93354,-3.13657 2.95432,-4.17834 1.02078,-1.041771 2.09024,-1.562808 3.2099,-1.562808 1.36002,0 2.41731,0.616878 3.17186,1.852307 0.75303,1.236342 1.287,2.823947 1.60495,4.760077 0.3149,1.93902 0.46094,4.059528 0.43812,6.359851 -0.0259,2.301237 -0.12322,4.517585 -0.29208,6.649199 -0.17038,2.132527 -0.36511,4.033667 -0.58417,5.705246 -0.21907,1.67158 -0.37728,2.823035 -0.47312,3.451779 0,1.114796 0.42444,1.998046 1.27483,2.652656 0.8504,0.65354 1.79815,1.04177 2.84479,1.16256 1.04664,0.1217 2.02938,-0.0729 2.95432,-0.58174 0.92342,-0.50902 1.45891,-1.36732 1.60495,-2.57978 0.48529,-3.487836 1.15465,-6.987534 2.00504,-10.500316 0.8504,-3.512629 1.82401,-6.661217 2.91781,-9.447436 1.0938,-2.786219 2.3093,-5.063419 3.6465,-6.831752 1.33721,-1.76742 2.7596,-2.652651 4.26719,-2.652651 0.77737,0 1.37371,0.533816 1.78598,1.59871 0.41378,1.065807 0.62068,2.518931 0.62068,4.360133 0,1.357131 -0.10954,2.750165 -0.32708,4.179253 -0.22058,1.429088 -0.47464,2.907009 -0.76672,4.43285 -0.29209,1.526754 -0.54766,3.088649 -0.76673,4.687359 -0.21754,1.599623 -0.32707,3.270138 -0.32707,5.014587 0,1.211393 0.1217,2.616445 0.36511,4.215155 0.24188,1.597798 0.70283,3.113598 1.38436,4.541628 0.68153,1.43 1.61712,2.64063 2.8098,3.63357 1.19116,0.99294 2.70939,1.48994 4.55622,1.48994 2.77329,0 5.22711,-0.59376 7.36755,-1.78035 2.13892,-1.1866 3.9751,-2.73648 5.50702,-4.6504 0.0791,-0.10055 0.15213,-0.2075 0.22972,-0.30699 0.11713,0.28296 0.22058,0.58265 0.35293,0.85176 1.04512,2.13162 2.46751,3.77825 4.26719,4.94187 1.79815,1.16256 3.91424,1.80424 6.34676,1.92594 2.42948,0.11988 5.07955,-0.32814 7.9502,-1.34511 2.13739,-0.7754 3.99792,-1.74445 5.57852,-2.90701 1.57909,-1.16256 3.00148,-2.57963 4.26566,-4.25121 1.26571,-1.671586 2.41884,-3.597523 3.46547,-5.777057 1.04664,-2.181359 2.10241,-4.675341 3.17187,-7.48651 0.19472,-0.773417 0.0122,-1.464077 -0.54614,-2.07061 -0.55983,-0.60486 -1.23984,-1.028992 -2.04308,-1.272397 z"
       fill="#0d0c23"
       id="path893"
       style="fill:#000000;stroke-width:1.52128" />
    <path
       fill-rule="evenodd"
       clip-rule="evenodd"
       d="m 442.56354,76.786874 c -0.24341,1.430001 -0.57048,3.005588 -0.98427,4.724175 -0.41379,1.720412 -0.93559,3.500763 -1.56844,5.341965 -0.63133,1.84105 -1.41022,3.500611 -2.33364,4.977619 -0.92341,1.478834 -1.98222,2.6525 -3.17186,3.5248 -1.19268,0.872148 -2.56487,1.235429 -4.12114,1.089691 -0.77889,-0.09584 -1.37523,-0.628744 -1.7875,-1.59871 -0.41379,-0.967989 -0.63133,-2.204331 -0.65719,-3.706288 -0.0243,-1.501045 0.10953,-3.148588 0.40161,-4.941718 0.29209,-1.791456 0.74087,-3.548683 1.3509,-5.269096 0.60699,-1.718587 1.34785,-3.306192 2.22259,-4.760228 0.87625,-1.452972 1.88486,-2.57963 3.02734,-3.378909 1.14248,-0.799432 2.39601,-1.173666 3.75603,-1.126658 1.36154,0.04883 2.82045,0.72641 4.37672,2.034708 -0.0989,0.630722 -0.26775,1.660474 -0.51115,3.088649 z m 25.92865,5.559508 c -0.75456,-0.387317 -1.53193,-0.471139 -2.33364,-0.253597 -0.80172,0.217543 -1.37372,0.957036 -1.71296,2.216501 -0.19472,1.357132 -0.63285,2.954929 -1.31286,4.795979 -0.68154,1.841202 -1.52128,3.586564 -2.5162,5.232281 -0.99795,1.647544 -2.14043,3.016693 -3.42896,4.106384 -1.28852,1.090756 -2.66223,1.58776 -4.11961,1.489026 -1.21703,-0.09584 -2.06894,-0.713631 -2.55271,-1.852155 -0.48833,-1.138676 -0.74238,-2.566851 -0.76672,-4.288176 -0.0259,-1.718587 0.14604,-3.656542 0.50963,-5.812953 0.3651,-2.15565 0.80323,-4.299282 1.31286,-6.432721 0.51115,-2.130701 1.03447,-4.17834 1.56996,-6.140332 0.53397,-1.961839 0.97057,-3.6214 1.31286,-4.977619 0.38793,-1.211545 0.26622,-2.240385 -0.36511,-3.089562 -0.63285,-0.846439 -1.42239,-1.453124 -2.37015,-1.816253 -0.94927,-0.363281 -1.91072,-0.460186 -2.88282,-0.290564 -0.97209,0.169775 -1.60342,0.69066 -1.89551,1.561896 -2.86913,-2.470859 -5.62872,-3.803194 -8.27727,-3.9967 -2.65159,-0.193659 -5.09476,0.388078 -7.33103,1.744296 -2.2378,1.356219 -4.21851,3.31821 -5.94363,5.886887 -1.72665,2.568525 -3.12471,5.365849 -4.19569,8.393648 -1.06946,3.027646 -1.7373,6.117208 -2.00504,9.265795 -0.26775,3.149349 -0.0609,6.020455 0.62068,8.612103 0.68153,2.591648 1.88334,4.712154 3.60999,6.357874 1.72513,1.64754 4.07246,2.47192 7.03895,2.47192 1.31286,0 2.57705,-0.26652 3.79255,-0.79943 1.21398,-0.53381 2.33364,-1.16347 3.35441,-1.89003 1.02078,-0.72656 1.91985,-1.48994 2.70027,-2.28922 0.77585,-0.799431 1.38436,-1.46499 1.82249,-1.998806 0.33924,1.744296 0.89907,3.223126 1.67797,4.433766 0.77585,1.21048 1.66428,2.20524 2.66071,2.97881 0.99644,0.77448 2.04308,1.3442 3.13688,1.70839 1.09379,0.36328 2.1526,0.54493 3.17186,0.54493 2.28648,0 4.42387,-0.7754 6.41979,-2.32619 1.99287,-1.54881 3.78037,-3.45178 5.36098,-5.70418 1.57909,-2.253317 2.8813,-4.62651 3.90056,-7.122317 1.02229,-2.494743 1.70231,-4.711244 2.04307,-6.650112 0.34077,-0.726562 0.2784,-1.489026 -0.18255,-2.288305 -0.46247,-0.799431 -1.06946,-1.392273 -1.82401,-1.781264 z"
       fill="#0d0c23"
       id="path895"
       style="fill:#000000;stroke-width:1.52128" />
    <path
       fill-rule="evenodd"
       clip-rule="evenodd"
       d="m 599.77994,122.46748 c -0.41227,1.64603 -1.05729,3.04104 -1.93354,4.17895 -0.87474,1.13792 -1.96854,1.73122 -3.2814,1.78142 -0.82605,0.0472 -1.4589,-0.38945 -1.89703,-1.3083 -0.43661,-0.92189 -0.74086,-2.10849 -0.91125,-3.56131 -0.17038,-1.45434 -0.2434,-3.07754 -0.21906,-4.86961 0.0243,-1.79206 0.0974,-3.56131 0.21906,-5.3053 0.12018,-1.74338 0.26775,-3.36796 0.43813,-4.86885 0.16886,-1.50287 0.30273,-2.6636 0.4001,-3.48783 1.65362,0.19351 3.02886,0.90714 4.12114,2.14348 1.09379,1.23543 1.93354,2.70057 2.51619,4.39695 0.58417,1.69546 0.92341,3.52525 1.0223,5.48618 0.0958,1.96245 -0.0624,3.76668 -0.47464,5.41422 z m -26.40329,0 c -0.41227,1.64603 -1.05729,3.04104 -1.93202,4.17895 -0.87474,1.13792 -1.97006,1.73122 -3.28292,1.78142 -0.82605,0.0472 -1.45738,-0.38945 -1.89551,-1.3083 -0.43813,-0.92189 -0.74238,-2.10849 -0.91125,-3.56131 -0.1719,-1.45434 -0.24492,-3.07754 -0.21906,-4.86961 0.0228,-1.79206 0.0958,-3.56131 0.21906,-5.3053 0.12019,-1.74338 0.26623,-3.36796 0.43661,-4.86885 0.17038,-1.50287 0.30274,-2.6636 0.40162,-3.48783 1.65211,0.19351 3.02734,0.90714 4.11962,2.14348 1.09532,1.23543 1.93354,2.70057 2.51771,4.39695 0.58417,1.69546 0.92342,3.52525 1.02078,5.48618 0.0958,1.96245 -0.0624,3.76668 -0.47464,5.41422 z M 546.2827,81.189907 c -0.0502,1.161648 -0.15973,2.191552 -0.33012,3.087737 -0.17038,0.89801 -0.40009,1.465903 -0.69218,1.708394 -0.53549,-0.291324 -1.19268,-1.040858 -1.97005,-2.253316 -0.77737,-1.21048 -1.38436,-2.580542 -1.82401,-4.106536 -0.43661,-1.525841 -0.572,-3.026733 -0.4001,-4.505567 0.16886,-1.477008 0.93559,-2.626789 2.29713,-3.45193 0.53397,-0.290412 0.99644,-0.181641 1.38588,0.327379 0.38945,0.508867 0.70436,1.247295 0.94928,2.216349 0.24188,0.969966 0.41075,2.083693 0.50963,3.343159 0.0974,1.260226 0.1217,2.470858 0.0745,3.634331 z m -6.4563,14.498077 c -0.75455,0.798366 -1.5943,1.488874 -2.51619,2.070763 -0.92494,0.581736 -1.87269,1.017734 -2.84479,1.308298 -0.97362,0.291325 -1.84835,0.363129 -2.62573,0.217543 -2.18759,-0.435237 -3.86556,-1.381168 -5.03238,-2.83414 -1.16682,-1.453124 -1.9092,-3.160605 -2.22411,-5.122445 -0.31642,-1.962904 -0.28143,-4.058615 0.10953,-6.286982 0.38793,-2.228367 1.0436,-4.29913 1.96854,-6.213201 0.92341,-1.914071 2.04307,-3.561614 3.35441,-4.941717 1.31287,-1.381168 2.74743,-2.240385 4.3037,-2.580695 -0.58417,2.470859 -0.77738,5.027517 -0.58417,7.667238 0.19472,2.640481 0.82757,5.123357 1.89703,7.448477 0.68001,1.40703 1.49541,2.689467 2.44317,3.852027 0.94928,1.163625 2.10393,2.156562 3.46547,2.979878 -0.38945,0.824228 -0.96145,1.635525 -1.71448,2.434956 z m 80.70376,-13.771515 c 0.14604,-1.113727 0.36359,-2.290283 0.65719,-3.525712 0.29057,-1.234517 0.65567,-2.433892 1.09228,-3.596604 0.43813,-1.163473 0.94928,-2.168428 1.53345,-3.01578 0.58417,-0.847199 1.20181,-1.453885 1.859,-1.817166 0.65719,-0.363281 1.32503,-0.327226 2.00504,0.108772 0.73022,0.437063 1.17899,1.357131 1.34937,2.76127 0.17039,1.406117 0,2.907009 -0.50962,4.506632 -0.51115,1.59871 -1.4224,3.100667 -2.73526,4.504806 -1.31134,1.406878 -3.08819,2.326185 -5.32447,2.762184 -0.0974,-0.677577 -0.073,-1.573762 0.073,-2.688402 z m 29.39412,0 c 0.14604,-1.113727 0.36359,-2.290283 0.65567,-3.525712 0.29209,-1.234517 0.65719,-2.433892 1.09532,-3.596604 0.43661,-1.163473 0.94624,-2.168428 1.53041,-3.01578 0.58417,-0.847199 1.20485,-1.453885 1.86052,-1.817166 0.65719,-0.363281 1.32503,-0.327226 2.00504,0.108772 0.73022,0.437063 1.17899,1.357131 1.34937,2.76127 0.17039,1.406117 0,2.907009 -0.50962,4.506632 -0.51115,1.59871 -1.4224,3.100667 -2.73526,4.504806 -1.31286,1.406878 -3.08819,2.326185 -5.32447,2.762184 -0.0974,-0.677577 -0.073,-1.573762 0.073,-2.688402 z m 27.31454,4.25121 c -0.55983,-0.60486 -1.23985,-1.028992 -2.04156,-1.272397 -0.80323,-0.241578 -1.56844,-0.265463 -2.29865,-0.0718 -0.72869,0.193507 -1.19268,0.702526 -1.38588,1.525841 -0.38945,1.55079 -1.00861,3.137482 -1.859,4.759164 -0.85192,1.624572 -1.89704,3.162431 -3.13688,4.615403 -1.23984,1.452972 -2.63789,2.738299 -4.19264,3.852027 -1.55779,1.114633 -3.18555,1.914063 -4.88634,2.397073 -1.70383,0.53473 -3.11405,0.59467 -4.23219,0.18255 -1.11814,-0.4112 -2.00505,-1.11372 -2.66224,-2.10666 -0.65567,-0.993849 -1.12879,-2.192463 -1.42239,-3.598428 -0.29057,-1.404139 -0.46247,-2.857263 -0.50963,-4.35998 2.77177,0.194419 5.23928,-0.301518 7.40253,-1.489939 2.16326,-1.186597 3.99944,-2.762336 5.50855,-4.724175 1.50606,-1.961078 2.64854,-4.165561 3.42592,-6.612384 0.77737,-2.446974 1.2155,-4.881018 1.31438,-7.303956 0.0472,-2.2772 -0.29361,-4.20329 -1.0223,-5.777964 -0.72869,-1.573761 -1.71296,-2.798237 -2.9528,-3.669473 -1.24136,-0.873061 -2.66223,-1.381167 -4.2687,-1.526754 -1.60343,-0.145738 -3.23272,0.07378 -4.88634,0.653693 -1.9944,0.679403 -3.68302,1.781264 -5.06738,3.307105 -1.38588,1.526754 -2.54205,3.295999 -3.46547,5.304998 -0.92494,2.011737 -1.65363,4.17834 -2.18912,6.504526 -0.53549,2.325272 -0.92341,4.615403 -1.1653,6.867806 -0.23732,2.185923 -0.3651,4.277984 -0.39401,6.280441 -0.18407,0.399183 -0.38032,0.800344 -0.59177,1.204091 -0.85192,1.624572 -1.89704,3.162431 -3.13688,4.615403 -1.23832,1.452972 -2.63789,2.738299 -4.19264,3.852027 -1.55626,1.114633 -3.18555,1.914063 -4.88634,2.397073 -1.70383,0.53473 -3.11253,0.59467 -4.23067,0.18255 -1.11966,-0.4112 -2.00657,-1.11372 -2.66224,-2.10666 -0.65567,-0.993849 -1.13031,-2.192463 -1.42239,-3.598428 -0.29209,-1.404139 -0.46247,-2.857263 -0.51115,-4.35998 2.77177,0.194419 5.23928,-0.301518 7.40406,-1.489939 2.16173,-1.186597 3.99791,-2.762336 5.5055,-4.724175 1.50758,-1.961078 2.65006,-4.165561 3.42744,-6.612384 0.77737,-2.446974 1.21702,-4.881018 1.31286,-7.303956 0.0487,-2.2772 -0.29057,-4.20329 -1.01926,-5.777964 -0.73021,-1.573761 -1.716,-2.798237 -2.95584,-3.669473 -1.23984,-0.873061 -2.66071,-1.381167 -4.26566,-1.526754 -1.60495,-0.145738 -3.23424,0.07378 -4.88634,0.653693 -1.99592,0.679403 -3.68454,1.781264 -5.0689,3.307105 -1.38588,1.526754 -2.54205,3.295999 -3.46547,5.304998 -0.92341,2.011737 -1.65211,4.17834 -2.1876,6.504526 -0.53549,2.325272 -0.92493,4.615403 -1.16682,6.867806 -0.13843,1.270419 -0.22971,2.502197 -0.29817,3.711764 -0.47007,0.398423 -0.92798,0.799432 -1.41631,1.193138 -1.67644,1.357132 -3.44112,2.57963 -5.28796,3.670386 -1.84835,1.090604 -3.76972,1.986788 -5.76107,2.689314 -1.99592,0.702526 -4.03747,1.126658 -6.12771,1.271483 l 4.52276,-48.25522 c 0.29209,-1.017886 0.14604,-1.913006 -0.43813,-2.688401 -0.58265,-0.775395 -1.3372,-1.308298 -2.26062,-1.59871 -0.92341,-0.291325 -1.9092,-0.266528 -2.95432,0.07196 -1.04664,0.340158 -1.90768,1.115553 -2.58921,2.32512 -0.34077,1.842115 -0.6937,4.360894 -1.05729,7.558314 -0.3651,3.197421 -0.73021,6.686166 -1.0938,10.465323 -0.3651,3.779157 -0.73021,7.679104 -1.09379,11.69984 -0.36511,4.022561 -0.68154,7.776922 -0.94928,11.264754 -0.0122,0.154866 -0.0213,0.294976 -0.0335,0.448016 -0.42596,0.35963 -0.83822,0.721846 -1.27939,1.077825 -1.67645,1.357132 -3.44113,2.57963 -5.28796,3.670386 -1.84836,1.090604 -3.76821,1.986788 -5.76108,2.689314 -1.9944,0.702526 -4.03747,1.126658 -6.12771,1.271483 l 4.52276,-48.25522 c 0.29209,-1.017886 0.14604,-1.913006 -0.43661,-2.688401 -0.58417,-0.775395 -1.33872,-1.308298 -2.26213,-1.59871 -0.92342,-0.291325 -1.90921,-0.266528 -2.95433,0.07196 -1.04511,0.340158 -1.90768,1.115553 -2.58921,2.32512 -0.34077,1.842115 -0.69218,4.360894 -1.05577,7.558314 -0.36662,3.197421 -0.73021,6.686166 -1.09532,10.465323 -0.3651,3.779157 -0.72869,7.679104 -1.09379,11.69984 -0.36359,4.022561 -0.68154,7.776922 -0.94776,11.264754 -0.006,0.06998 -0.0106,0.133568 -0.0167,0.203699 -0.76368,0.353089 -1.59582,0.662973 -2.50098,0.922959 -0.92342,0.267288 -1.96854,0.424893 -3.13536,0.472965 0.19473,-0.873213 0.35142,-1.842115 0.47312,-2.907921 0.1217,-1.064895 0.22059,-2.179534 0.29361,-3.343159 0.073,-1.161648 0.0958,-2.325121 0.073,-3.487833 -0.0259,-1.163473 -0.0867,-2.228367 -0.18255,-3.198333 -0.24493,-2.081716 -0.69371,-4.056638 -1.34938,-5.922637 -0.65719,-1.864325 -1.54409,-3.426069 -2.66223,-4.68736 -1.11966,-1.259465 -2.51619,-2.107577 -4.19569,-2.542815 -1.67644,-0.43615 -3.63433,-0.291324 -5.86908,0.435238 -3.30878,-0.435238 -6.28592,-0.131895 -8.93599,0.908963 -2.65006,1.042836 -4.94871,2.555746 -6.8929,4.541621 -1.9442,1.987853 -3.53697,4.324079 -4.77681,7.013545 -1.23984,2.688401 -2.06742,5.450736 -2.47969,8.283963 -0.17494,1.201201 -0.26013,2.397077 -0.286,3.590063 -0.75303,1.536033 -1.57756,2.878408 -2.48576,4.005066 -1.28852,1.598711 -2.62573,2.907009 -4.01161,3.923983 -1.38588,1.017735 -2.7596,1.79313 -4.11962,2.326033 -1.36306,0.533816 -2.57857,0.897097 -3.64802,1.089843 -1.26418,0.242492 -2.47969,0.267289 -3.6465,0.07287 -1.16682,-0.192746 -2.2378,-0.750598 -3.20838,-1.671579 -0.77889,-0.677729 -1.37523,-1.768333 -1.7875,-3.27029 -0.41379,-1.501805 -0.65567,-3.208374 -0.72869,-5.123358 -0.073,-1.914071 0,-3.912877 0.21754,-5.995658 0.21907,-2.082628 0.59482,-4.057551 1.13031,-5.922637 0.53549,-1.865238 1.21398,-3.536665 2.04308,-5.015651 0.82453,-1.475943 1.79815,-2.530797 2.91781,-3.160453 0.6298,0.09767 1.02077,0.472052 1.16682,1.125745 0.14604,0.654605 0.18103,1.43 0.10801,2.326185 -0.0715,0.896945 -0.18104,1.817166 -0.32708,2.76127 -0.14604,0.945018 -0.21906,1.733344 -0.21906,2.362088 0.2434,1.308298 0.71652,2.326185 1.42239,3.052595 0.70435,0.726562 1.49542,1.151606 2.37015,1.271483 0.87474,0.121702 1.7373,-0.08397 2.59074,-0.617791 0.84887,-0.53199 1.54105,-1.380102 2.07806,-2.543727 0.0472,0.04883 0.12018,0.07287 0.21754,0.07287 l 1.0223,-9.228981 c 0.29057,-1.260378 0.0958,-2.374105 -0.58417,-3.343007 -0.68153,-0.969054 -1.5806,-1.526754 -2.69874,-1.671579 -1.41023,-2.034861 -3.31943,-3.112534 -5.72609,-3.234236 -2.40666,-0.120789 -4.87417,0.666472 -7.40254,2.362087 -1.55626,1.115553 -2.92998,2.652499 -4.12114,4.614491 -1.19268,1.962904 -2.16325,4.142438 -2.91629,6.540427 -0.75607,2.39799 -1.29004,4.930764 -1.60494,7.595281 -0.31643,2.664366 -0.37728,5.257078 -0.18408,7.774944 0.19473,2.520605 0.64502,4.89471 1.3509,7.122164 0.70435,2.229432 1.68861,4.09451 2.95432,5.59556 1.06946,1.3083 2.28343,2.26609 3.64498,2.87187 1.36154,0.60577 2.78393,0.98015 4.26718,1.12574 1.48325,0.14483 2.95432,0.084 4.41323,-0.18164 1.4589,-0.26546 2.84478,-0.64076 4.15765,-1.12666 1.70078,-0.62874 3.4533,-1.42909 5.25145,-2.39799 1.79815,-0.96814 3.5248,-2.13161 5.17842,-3.488738 0.87017,-0.713631 1.70688,-1.491765 2.5162,-2.326185 0.36815,0.910941 0.78041,1.792369 1.27635,2.61751 1.31286,2.179533 3.08667,3.948773 5.32447,5.304993 2.23475,1.35622 4.9837,2.009 8.24076,1.96199 3.50198,-0.0488 6.73469,-0.93208 9.70118,-2.6525 2.96649,-1.71858 5.39749,-4.252115 7.29453,-7.594361 2.84022,0 5.63481,-0.466424 8.38224,-1.393034 -0.0228,0.29315 -0.0472,0.601969 -0.0685,0.885079 -0.1932,2.567764 -0.29209,4.311146 -0.29209,5.232126 -0.0472,1.59871 -0.15669,3.57272 -0.32707,5.92188 -0.17038,2.35006 -0.27992,4.82108 -0.3286,7.41211 -0.0472,2.59226 0.0487,5.20886 0.29209,7.8498 0.2434,2.63941 0.75303,5.03847 1.53192,7.19564 0.77586,2.15413 1.88182,3.98422 3.31791,5.48724 1.43304,1.49998 3.31791,2.39754 5.65307,2.6881 2.47968,0.33772 4.61859,-0.0974 6.41827,-1.3083 1.79814,-1.21246 3.25705,-2.87065 4.37671,-4.97762 1.11814,-2.10849 1.90616,-4.54253 2.37015,-7.30365 0.46095,-2.76264 0.59482,-5.53593 0.40162,-8.32291 -0.19625,-2.78561 -0.7074,-5.41331 -1.53345,-7.88326 -0.82605,-2.47177 -1.97005,-4.50663 -3.42744,-6.10625 0.87626,-0.24067 1.91985,-0.7007 3.13688,-1.3801 1.21397,-0.677729 2.46599,-1.441106 3.75603,-2.28937 0.31642,-0.208263 0.62829,-0.427783 0.94471,-0.641675 -0.11866,1.716762 -0.17951,2.941085 -0.17951,3.658365 -0.0472,1.59871 -0.15669,3.57272 -0.32859,5.92188 -0.16887,2.35006 -0.2784,4.82108 -0.32708,7.41211 -0.0487,2.59226 0.0487,5.20886 0.29209,7.8498 0.24188,2.63941 0.75303,5.03847 1.5304,7.19564 0.77737,2.15413 1.88486,3.98422 3.31791,5.48724 1.43456,1.49998 3.31942,2.39754 5.65458,2.6881 2.47817,0.33772 4.61708,-0.0974 6.41675,-1.3083 1.79967,-1.21246 3.25858,-2.87065 4.37672,-4.97762 1.11814,-2.10849 1.90768,-4.54253 2.37015,-7.30365 0.46247,-2.76264 0.59482,-5.53593 0.40161,-8.32291 -0.19472,-2.78561 -0.70587,-5.41331 -1.5304,-7.88326 -0.8291,-2.47177 -1.97005,-4.50663 -3.43048,-6.10625 0.87626,-0.24067 1.92137,-0.7007 3.13687,-1.3801 1.2155,-0.677729 2.46751,-1.441106 3.75756,-2.28937 0.66936,-0.440562 1.33416,-0.895119 1.99896,-1.362608 0.24949,2.36939 0.78802,4.447598 1.64602,6.195698 1.04664,2.13253 2.46751,3.77916 4.26718,4.94263 1.79815,1.16165 3.91425,1.80424 6.34677,1.92503 2.431,0.11988 5.07955,-0.32723 7.9502,-1.34511 2.13891,-0.77449 3.99791,-1.74339 5.57852,-2.9061 1.57909,-1.16347 3.00148,-2.58054 4.26718,-4.25121 0.073,-0.0968 0.14148,-0.20187 0.21298,-0.29954 0.22515,0.67849 0.47464,1.33036 0.77129,1.9343 1.04664,2.13253 2.46903,3.77916 4.26718,4.94263 1.79815,1.16165 3.91425,1.80424 6.34525,1.92503 2.431,0.11988 5.08107,-0.32723 7.95019,-1.34511 2.14044,-0.77449 3.99944,-1.74339 5.58005,-2.9061 1.57909,-1.16347 3.00148,-2.58054 4.26718,-4.25121 1.26418,-1.672337 2.41731,-3.598426 3.46395,-5.77796 1.04512,-2.180446 2.10241,-4.674428 3.17338,-7.485445 0.19321,-0.774482 0.0106,-1.46499 -0.54765,-2.070762 z"
       fill="#0d0c23"
       id="path897"
       style="fill:#000000;stroke-width:1.52128" />
  </g>
</svg>
